<svg width="355" height="100" viewBox="0 0 355 100" fill="none" xmlns="http://www.w3.org/2000/svg">
<path d="M0 98.6512V0H69.3642V21.58H26.7823V38.5356H65.1252L59.3449 60.1156H26.7823V98.6512H0Z" fill="black"/>
<path d="M95.566 100C87.5377 100 80.6655 98.4104 74.9494 95.2312C69.2333 92.0199 64.8499 87.5562 61.7991 81.8401C58.7484 76.0918 57.223 69.4284 57.223 61.8497C57.223 54.271 58.7484 47.6236 61.7991 41.9075C64.8499 36.1593 69.2333 31.6956 74.9494 28.5164C80.6655 25.3051 87.5377 23.6994 95.566 23.6994C103.594 23.6994 110.466 25.3051 116.183 28.5164C121.899 31.6956 126.282 36.1593 129.333 41.9075C132.384 47.6236 133.909 54.271 133.909 61.8497C133.909 69.4284 132.384 76.0918 129.333 81.8401C126.282 87.5562 121.899 92.0199 116.183 95.2312C110.466 98.4104 103.594 100 95.566 100ZM95.7587 80.3468C98.0066 80.3468 99.9494 79.5922 101.587 78.0829C103.225 76.5735 104.493 74.422 105.393 71.6281C106.292 68.8343 106.741 65.5106 106.741 61.657C106.741 57.7714 106.292 54.4477 105.393 51.6859C104.493 48.8921 103.225 46.7405 101.587 45.2312C99.9494 43.7219 98.0066 42.9672 95.7587 42.9672C93.3823 42.9672 91.3431 43.7219 89.6411 45.2312C87.9391 46.7405 86.6386 48.8921 85.7394 51.6859C84.8402 54.4477 84.3907 57.7714 84.3907 61.657C84.3907 65.5106 84.8402 68.8343 85.7394 71.6281C86.6386 74.422 87.9391 76.5735 89.6411 78.0829C91.3431 79.5922 93.3823 80.3468 95.7587 80.3468Z" fill="black"/>
<path d="M172.204 100C164.176 100 157.304 98.4104 151.587 95.2312C145.871 92.0199 141.488 87.5562 138.437 81.8401C135.386 76.0918 133.861 69.4284 133.861 61.8497C133.861 54.271 135.386 47.6236 138.437 41.9075C141.488 36.1593 145.871 31.6956 151.587 28.5164C157.304 25.3051 164.176 23.6994 172.204 23.6994C179.462 23.6994 185.74 25.0161 191.038 27.6493C196.369 30.2505 200.496 33.9435 203.418 38.7283C206.34 43.4811 207.817 49.0687 207.85 55.4913H183.187C182.833 51.6056 181.709 48.6512 179.815 46.6281C177.952 44.5729 175.544 43.5453 172.589 43.5453C170.277 43.5453 168.254 44.2197 166.52 45.5684C164.786 46.885 163.437 48.8921 162.474 51.5896C161.51 54.255 161.029 57.6108 161.029 61.657C161.029 65.7033 161.51 69.0751 162.474 71.7726C163.437 74.438 164.786 76.4451 166.52 77.7938C168.254 79.1105 170.277 79.7688 172.589 79.7688C174.548 79.7688 176.282 79.3192 177.792 78.42C179.301 77.4888 180.521 76.14 181.453 74.3738C182.416 72.5755 182.994 70.3918 183.187 67.8227H207.85C207.753 74.3417 206.26 80.0257 203.37 84.8748C200.48 89.6917 196.385 93.4168 191.086 96.0501C185.82 98.6834 179.526 100 172.204 100Z" fill="black"/>
<path d="M255.537 66.2813V24.6628H282.127V98.6512H256.886V84.5857H256.115C254.509 89.3063 251.7 92.9994 247.685 95.6647C243.671 98.298 238.903 99.6146 233.379 99.6146C228.209 99.6146 223.681 98.4265 219.795 96.0501C215.942 93.6737 212.939 90.3982 210.788 86.2235C208.668 82.0488 207.592 77.264 207.56 71.869V24.6628H234.15V66.2813C234.182 69.9422 235.113 72.8163 236.944 74.9037C238.806 76.991 241.407 78.0347 244.747 78.0347C246.963 78.0347 248.874 77.569 250.479 76.6378C252.117 75.6744 253.37 74.3256 254.237 72.5915C255.136 70.8253 255.569 68.7219 255.537 66.2813Z" fill="black"/>
<path d="M353.021 48.7476H328.55C328.422 47.2383 327.892 45.9377 326.961 44.8459C326.03 43.754 324.825 42.9191 323.348 42.341C321.903 41.7309 320.297 41.4258 318.531 41.4258C316.251 41.4258 314.292 41.8433 312.654 42.6782C311.017 43.5132 310.214 44.7014 310.246 46.2428C310.214 47.3346 310.679 48.3462 311.643 49.2775C312.638 50.2087 314.549 50.9313 317.375 51.4451L332.404 54.1426C339.983 55.5234 345.619 57.8516 349.312 61.1272C353.037 64.3706 354.915 68.7219 354.947 74.1811C354.915 79.4477 353.342 84.0238 350.227 87.9094C347.144 91.763 342.921 94.7495 337.558 96.869C332.227 98.9563 326.142 100 319.302 100C307.998 100 299.151 97.6879 292.76 93.0636C286.402 88.4393 282.854 82.3378 282.115 74.7591H308.512C308.865 77.1034 310.021 78.9178 311.98 80.2023C313.971 81.4547 316.476 82.0809 319.495 82.0809C321.935 82.0809 323.942 81.6634 325.516 80.8285C327.121 79.9936 327.94 78.8054 327.972 77.264C327.94 75.851 327.234 74.727 325.853 73.8921C324.504 73.0572 322.385 72.3828 319.495 71.869L306.392 69.5568C298.846 68.2402 293.194 65.7354 289.437 62.0424C285.68 58.3494 283.817 53.5967 283.849 47.7842C283.817 42.6461 285.166 38.2948 287.895 34.7302C290.657 31.1336 294.591 28.404 299.697 26.5414C304.835 24.6468 310.92 23.6994 317.953 23.6994C328.647 23.6994 337.076 25.9152 343.242 30.3468C349.44 34.7784 352.699 40.912 353.021 48.7476Z" fill="black"/>
</svg>
